<svg width="500" height="182" viewBox="0 0 500 182" fill="none" xmlns="http://www.w3.org/2000/svg">
<rect x="74" y="158" width="44" height="129" rx="22" transform="rotate(180 74 158)" fill="url(#paint0_linear_14_2)"/>
<rect x="74" y="158" width="44" height="129" rx="22" transform="rotate(180 74 158)" stroke="rgba(255,255,255,0.1)"/>
<rect x="159" y="29" width="44" height="129" rx="22" transform="rotate(90 159 29)" fill="url(#paint1_linear_14_2)"/>
<path d="M108 82C121.255 82 132 92.2975 132 105C132 117.703 121.255 128 108 128C94.7452 128 84 117.703 84 105C84 92.2975 94.7452 82 108 82Z" fill="url(#paint2_linear_14_2)"/>
<path d="M108 82C121.255 82 132 92.2975 132 105C132 117.703 121.255 128 108 128C94.7452 128 84 117.703 84 105C84 92.2975 94.7452 82 108 82Z" stroke="#4C009D"/>
<path d="M210 124.621V41H259.484V55.5739H224.6V72.5369H248.399V87.1107H224.6V124.621H210Z" fill="#8b5cf6"/>
<path d="M279.289 125.688C273.784 125.688 268.758 124.275 264.211 121.448C259.703 118.621 256.093 114.838 253.381 110.099C250.708 105.321 249.372 100.045 249.372 94.2711C249.372 89.8909 250.149 85.8095 251.705 82.0266C253.261 78.204 255.395 74.8592 258.108 71.9922C260.86 69.0854 264.051 66.8157 267.681 65.1831C271.311 63.5505 275.18 62.7342 279.289 62.7342C284.794 62.7342 289.8 64.1478 294.308 66.9749C298.855 69.8021 302.465 73.6049 305.138 78.3832C307.85 83.1615 309.207 88.4574 309.207 94.2711C309.207 98.6114 308.429 102.673 306.873 106.456C305.317 110.239 303.163 113.583 300.411 116.49C297.698 119.357 294.527 121.607 290.897 123.24C287.307 124.872 283.438 125.688 279.289 125.688ZM279.289 111.115C282.201 111.115 284.814 110.338 287.127 108.785C289.441 107.232 291.256 105.182 292.572 102.633C293.929 100.085 294.607 97.2973 294.607 94.2711C294.607 91.1652 293.909 88.338 292.513 85.7896C291.156 83.2013 289.302 81.1506 286.948 79.6375C284.634 78.0845 282.081 77.308 279.289 77.308C276.417 77.308 273.824 78.0845 271.511 79.6375C269.197 81.1904 267.362 83.261 266.006 85.8493C264.649 88.4375 263.971 91.2448 263.971 94.2711C263.971 97.4168 264.669 100.264 266.066 102.812C267.462 105.361 269.317 107.392 271.63 108.905C273.984 110.378 276.537 111.115 279.289 111.115Z" fill="#8b5cf6"/>
<path d="M311.403 124.136L311.343 64.4066H325.943L326.002 69.7225C328.037 67.5722 330.47 65.8799 333.302 64.6455C336.135 63.3713 339.186 62.7342 342.457 62.7342C344.651 62.7342 346.845 63.0527 349.039 63.6898L343.295 78.3832C341.779 77.7859 340.263 77.4872 338.747 77.4872C336.394 77.4872 334.24 78.0646 332.285 79.2194C330.37 80.3343 328.835 81.8674 327.678 83.8185C326.561 85.7298 326.002 87.8602 326.002 90.2095V124.136H311.403Z" fill="#8b5cf6"/>
<path d="M387.771 64.4066H402.371V125.27C402.371 129.571 401.493 133.473 399.738 136.977C397.983 140.521 395.589 143.547 392.558 146.056C389.526 148.604 386.056 150.556 382.146 151.909C378.237 153.303 374.129 154 369.82 154C365.632 154 361.603 153.144 357.734 151.432C353.864 149.719 350.434 147.37 347.442 144.384C344.49 141.437 342.236 138.072 340.681 134.289L354.024 128.257C354.822 130.447 356.018 132.358 357.614 133.991C359.25 135.663 361.124 136.957 363.239 137.873C365.353 138.829 367.547 139.307 369.82 139.307C372.134 139.307 374.348 138.988 376.462 138.351C378.616 137.714 380.551 136.778 382.266 135.544C383.981 134.349 385.318 132.876 386.275 131.124C387.272 129.412 387.771 127.46 387.771 125.27V116.849C385.896 119.477 383.543 121.607 380.71 123.24C377.878 124.872 374.607 125.688 370.897 125.688C366.589 125.688 362.56 124.872 358.811 123.24C355.061 121.607 351.75 119.357 348.878 116.49C346.046 113.583 343.812 110.239 342.177 106.456C340.581 102.673 339.783 98.6114 339.783 94.2711C339.783 89.9308 340.581 85.8692 342.177 82.0864C343.812 78.3035 346.046 74.9786 348.878 72.1116C351.75 69.2048 355.061 66.9351 358.811 65.3025C362.56 63.6699 366.589 62.8536 370.897 62.8536C374.607 62.8536 377.878 63.6699 380.71 65.3025C383.543 66.8953 385.896 69.0057 387.771 71.6338V64.4066ZM371.077 111.652C374.148 111.652 376.861 110.876 379.215 109.323C381.608 107.73 383.483 105.62 384.839 102.991C386.195 100.324 386.873 97.4168 386.873 94.2711C386.873 91.0855 386.175 88.1787 384.779 85.5506C383.423 82.9226 381.548 80.8121 379.155 79.2194C376.801 77.6266 374.109 76.8302 371.077 76.8302C368.085 76.8302 365.353 77.6266 362.88 79.2194C360.406 80.7723 358.432 82.8628 356.956 85.4909C355.48 88.119 354.742 91.0457 354.742 94.2711C354.742 97.4964 355.48 100.423 356.956 103.051C358.432 105.679 360.406 107.77 362.88 109.323C365.353 110.876 368.085 111.652 371.077 111.652Z" fill="#8b5cf6"/>
<path d="M462 86.3868V124.136H447.4V90.2095C447.4 87.8602 446.822 85.7298 445.665 83.8185C444.508 81.8674 442.952 80.3343 440.998 79.2194C439.083 78.0646 436.949 77.4872 434.596 77.4872C432.242 77.4872 430.088 78.0646 428.133 79.2194C426.219 80.3343 424.683 81.8674 423.526 83.8185C422.409 85.7298 421.851 87.8602 421.851 90.2095V124.136H407.251L407.191 64.4066H421.791L421.851 69.7225C423.885 67.5722 426.318 65.8799 429.151 64.6455C431.983 63.3713 435.034 62.7342 438.305 62.7342C442.653 62.7342 446.622 63.8093 450.212 65.9595C453.803 68.07 456.655 70.917 458.769 74.5008C460.923 78.0447 462 82.0067 462 86.3868Z" fill="url(#paint3_linear_14_2)"/>
<defs>
<linearGradient id="paint0_linear_14_2" x1="96" y1="158" x2="96" y2="287" gradientUnits="userSpaceOnUse">
<stop stop-color="#7c3aed"/>
<stop offset="1" stop-color="#33C3CE"/>
</linearGradient>
<linearGradient id="paint1_linear_14_2" x1="181" y1="158" x2="181" y2="29" gradientUnits="userSpaceOnUse">
<stop stop-color="#7c3aed"/>
<stop offset="1" stop-color="#33C3CE"/>
</linearGradient>
<linearGradient id="paint2_linear_14_2" x1="91" y1="91" x2="126" y2="120" gradientUnits="userSpaceOnUse">
<stop stop-color="#7c3aed"/>
<stop offset="0.950021" stop-color="#33C3CE"/>
</linearGradient>
<linearGradient id="paint3_linear_14_2" x1="333.171" y1="40.515" x2="333.171" y2="154" gradientUnits="userSpaceOnUse">
<stop stop-color="#33C3CE"/>
<stop offset="1" stop-color="#7c3aed"/>
</linearGradient>
</defs>
</svg>
